<svg width="32" height="32" viewBox="0 0 32 32" fill="none" xmlns="http://www.w3.org/2000/svg">
<circle cx="16" cy="16" r="16" fill="#E7E7E8"/>
<path d="M14.8257 13.2433V14.4826H13.9185V15.9973H14.8257V20.5H16.6905V15.9973H17.9415C17.9415 15.9973 18.0594 15.271 18.1161 14.4763H16.6977V13.4413C16.6977 13.2856 16.9011 13.0777 17.1027 13.0777H18.1179V11.5H16.7364C14.7798 11.5 14.8257 13.0165 14.8257 13.2433Z" fill="#969BAB"/>
<path d="M10.6 8.8C10.1226 8.8 9.66477 8.98964 9.32721 9.32721C8.98964 9.66477 8.8 10.1226 8.8 10.6V21.4C8.8 21.8774 8.98964 22.3352 9.32721 22.6728C9.66477 23.0104 10.1226 23.2 10.6 23.2H21.4C21.8774 23.2 22.3352 23.0104 22.6728 22.6728C23.0104 22.3352 23.2 21.8774 23.2 21.4V10.6C23.2 10.1226 23.0104 9.66477 22.6728 9.32721C22.3352 8.98964 21.8774 8.8 21.4 8.8H10.6ZM10.6 7H21.4C22.3548 7 23.2705 7.37928 23.9456 8.05442C24.6207 8.72955 25 9.64522 25 10.6V21.4C25 22.3548 24.6207 23.2705 23.9456 23.9456C23.2705 24.6207 22.3548 25 21.4 25H10.6C9.64522 25 8.72955 24.6207 8.05442 23.9456C7.37928 23.2705 7 22.3548 7 21.4V10.6C7 9.64522 7.37928 8.72955 8.05442 8.05442C8.72955 7.37928 9.64522 7 10.6 7Z" fill="#969BAB"/>
</svg>
