<svg width="72" height="72" viewBox="0 0 72 72" fill="none" xmlns="http://www.w3.org/2000/svg">
<path d="M31.3026 24.9732V29.9304H27.6738V35.9892H31.3026V54H38.7618V35.9892H43.7658C43.7658 35.9892 44.2374 33.084 44.4642 29.9052H38.7906V25.7652C38.7906 25.1424 39.6042 24.3108 40.4106 24.3108H44.4714V18H38.9454C31.119 18 31.3026 24.066 31.3026 24.9732Z" fill="#86D7F5"/>
<path d="M14.4 7.2C12.4904 7.2 10.6591 7.95857 9.30883 9.30883C7.95857 10.6591 7.2 12.4904 7.2 14.4V57.6C7.2 59.5096 7.95857 61.3409 9.30883 62.6912C10.6591 64.0414 12.4904 64.8 14.4 64.8H57.6C59.5096 64.8 61.3409 64.0414 62.6912 62.6912C64.0414 61.3409 64.8 59.5096 64.8 57.6V14.4C64.8 12.4904 64.0414 10.6591 62.6912 9.30883C61.3409 7.95857 59.5096 7.2 57.6 7.2H14.4ZM14.4 0H57.6C61.4191 0 65.0818 1.51714 67.7823 4.21766C70.4829 6.91819 72 10.5809 72 14.4V57.6C72 61.4191 70.4829 65.0818 67.7823 67.7823C65.0818 70.4829 61.4191 72 57.6 72H14.4C10.5809 72 6.91819 70.4829 4.21766 67.7823C1.51714 65.0818 0 61.4191 0 57.6V14.4C0 10.5809 1.51714 6.91819 4.21766 4.21766C6.91819 1.51714 10.5809 0 14.4 0Z" fill="#86D7F5"/>
</svg>
