<svg width="32" height="32" viewBox="0 0 32 32" fill="none" xmlns="http://www.w3.org/2000/svg">
<circle cx="16" cy="16" r="16" fill="#E7E7E8"/>
<path d="M10 8.8C9.46957 8.8 8.96086 8.98964 8.58579 9.32721C8.21071 9.66477 8 10.1226 8 10.6V21.4C8 21.8774 8.21071 22.3352 8.58579 22.6728C8.96086 23.0104 9.46957 23.2 10 23.2H22C22.5304 23.2 23.0391 23.0104 23.4142 22.6728C23.7893 22.3352 24 21.8774 24 21.4V10.6C24 10.1226 23.7893 9.66477 23.4142 9.32721C23.0391 8.98964 22.5304 8.8 22 8.8H10ZM10 7H22C23.0609 7 24.0783 7.37928 24.8284 8.05442C25.5786 8.72955 26 9.64522 26 10.6V21.4C26 22.3548 25.5786 23.2705 24.8284 23.9456C24.0783 24.6207 23.0609 25 22 25H10C8.93913 25 7.92172 24.6207 7.17157 23.9456C6.42143 23.2705 6 22.3548 6 21.4V10.6C6 9.64522 6.42143 8.72955 7.17157 8.05442C7.92172 7.37928 8.93913 7 10 7Z" fill="#969BAB"/>
<path d="M26 11.0001V21C26 21.5675 25.4594 22 24.75 22H23.5V12.9246L16 17.2345L8.5 12.9246V22H7.25C6.54062 22 6 21.5675 6 21V11.0001C6 10.7161 6.13375 10.4661 6.35813 10.2891C6.47498 10.1956 6.61416 10.1218 6.76737 10.0722C6.92059 10.0225 7.08471 9.99801 7.25 10.0001H7.66688L16 14.8336L24.3331 10.0001H24.75C25.105 10.0001 25.4175 10.1071 25.6419 10.2891C25.8662 10.4661 26 10.7161 26 11.0001Z" fill="#969BAB"/>
</svg>
