<svg width="72" height="72" viewBox="0 0 72 72" fill="none" xmlns="http://www.w3.org/2000/svg">
<path d="M14.4 7.2C12.4904 7.2 10.6591 7.95857 9.30883 9.30883C7.95857 10.6591 7.2 12.4904 7.2 14.4V57.6C7.2 59.5096 7.95857 61.3409 9.30883 62.6912C10.6591 64.0414 12.4904 64.8 14.4 64.8H57.6C59.5096 64.8 61.3409 64.0414 62.6912 62.6912C64.0414 61.3409 64.8 59.5096 64.8 57.6V14.4C64.8 12.4904 64.0414 10.6591 62.6912 9.30883C61.3409 7.95857 59.5096 7.2 57.6 7.2H14.4ZM14.4 0H57.6C61.4191 0 65.0818 1.51714 67.7823 4.21766C70.4829 6.91819 72 10.5809 72 14.4V57.6C72 61.4191 70.4829 65.0818 67.7823 67.7823C65.0818 70.4829 61.4191 72 57.6 72H14.4C10.5809 72 6.91819 70.4829 4.21766 67.7823C1.51714 65.0818 0 61.4191 0 57.6V14.4C0 10.5809 1.51714 6.91819 4.21766 4.21766C6.91819 1.51714 10.5809 0 14.4 0Z" fill="#FFBB6C"/>
<path d="M72 16.0005V56C72 58.27 70.0537 60 67.5 60H63V23.6984L36 40.9382L9 23.6984V60H4.5C1.94625 60 0 58.27 0 56V16.0005C0 14.8645 0.4815 13.8645 1.28925 13.1565C1.70994 12.7823 2.21096 12.4872 2.76254 12.2886C3.31411 12.09 3.90497 11.9921 4.5 12.0005H6.00075L36 31.3343L65.9993 12.0005H67.5C68.778 12.0005 69.903 12.4285 70.7107 13.1565C71.5185 13.8645 72 14.8645 72 16.0005Z" fill="#FFBB6C"/>
</svg>
