<svg width="52" height="49" viewBox="0 0 52 49" fill="none" xmlns="http://www.w3.org/2000/svg">
<path d="M15.5683 35.074L16.2836 35.4067C19.2644 37.0698 22.6026 37.846 25.9409 37.846C36.4327 37.846 45.0168 29.8628 45.0168 20.1056C45.0168 15.4488 42.9899 10.9028 39.4133 7.57645C35.8365 4.25008 31.0674 2.36523 25.9409 2.36523C15.4492 2.36523 6.86484 10.3484 6.98414 20.2166C6.98414 23.5428 8.05716 26.7584 9.84546 29.5301L10.3223 30.1955L8.41489 36.7373L15.5683 35.074Z" fill="#00E676"/>
<g filter="url(#filter0_d_20_246)">
<path d="M41.6457 5.98377C37.5694 2.10547 31.9346 0 26.1798 0C13.9511 0 4.11997 9.19726 4.23976 20.3891C4.23976 23.9351 5.31878 27.3703 7.11725 30.473L4 41L15.6294 38.2297C18.8664 39.892 22.463 40.6677 26.06 40.6677C38.1689 40.6677 48 31.4703 48 20.2786C48 14.8487 45.722 9.75135 41.6459 5.98377H41.6457ZM26.1798 37.2326C22.9427 37.2326 19.7057 36.457 16.9482 34.9057L16.2289 34.5732L9.27528 36.2353L11.0736 29.9192L10.5941 29.2542C5.31878 21.3867 7.83653 10.9703 16.4686 6.0945C25.1008 1.2189 36.2506 3.54597 41.5259 11.5243C46.801 19.5027 44.2833 29.8081 35.6513 34.6839C32.8936 36.346 29.5368 37.2324 26.1798 37.2324V37.2326ZM36.7302 24.9327L35.4114 24.3786C35.4114 24.3786 33.4933 23.6029 32.2943 23.0488C32.1743 23.0488 32.0545 22.938 31.9346 22.938C31.5749 22.938 31.3351 23.0488 31.0953 23.1597C31.0953 23.1597 30.9755 23.2704 29.297 25.0434C29.1771 25.265 28.9373 25.3759 28.6975 25.3759H28.5776C28.4578 25.3759 28.218 25.265 28.098 25.1543L27.4986 24.9327C26.1798 24.3786 24.981 23.7136 24.0217 22.8272C23.782 22.6056 23.4223 22.384 23.1825 22.1624C22.3432 21.3867 21.504 20.5002 20.9047 19.5029L20.7847 19.2813C20.6649 19.1704 20.6649 19.0597 20.5449 18.8381C20.5449 18.6164 20.5449 18.3948 20.6649 18.284C20.6649 18.284 21.1444 17.7299 21.504 17.3975C21.7439 17.1758 21.8637 16.8435 22.1035 16.6219C22.3432 16.2894 22.4632 15.8462 22.3432 15.5137C22.2234 14.9596 20.7847 11.9677 20.4251 11.3029C20.1852 10.9704 19.9456 10.8597 19.5859 10.7488H18.2671C18.0272 10.7488 17.7876 10.8597 17.5477 10.8597L17.4277 10.9704C17.1879 11.0813 16.9482 11.3029 16.7084 11.4136C16.4686 11.6354 16.3487 11.8568 16.1089 12.0786C15.2697 13.0759 14.7901 14.2948 14.7901 15.5137C14.7901 16.4001 15.0299 17.2867 15.3896 18.0624L15.5096 18.3948C16.5886 20.5002 18.0272 22.384 19.9456 24.0461L20.4251 24.4893C20.7847 24.8218 21.1444 25.0434 21.3842 25.3758C23.902 27.3705 26.7793 28.811 30.0163 29.5867C30.376 29.6974 30.8556 29.6974 31.2153 29.8083H32.4141C33.0136 29.8083 33.7329 29.5867 34.2126 29.3651C34.5721 29.1435 34.8119 29.1435 35.0517 28.9219L35.2916 28.7001C35.5314 28.4785 35.7711 28.3678 36.0109 28.1462C36.2506 27.9246 36.4904 27.703 36.6104 27.4812C36.8501 27.038 36.9699 26.4839 37.0899 25.93V25.1543C37.0899 25.1543 36.9699 25.0434 36.7302 24.9327Z" fill="white"/>
</g>
<defs>
<filter id="filter0_d_20_246" x="0" y="0" width="52" height="49" filterUnits="userSpaceOnUse" color-interpolation-filters="sRGB">
<feFlood flood-opacity="0" result="BackgroundImageFix"/>
<feColorMatrix in="SourceAlpha" type="matrix" values="0 0 0 0 0 0 0 0 0 0 0 0 0 0 0 0 0 0 127 0" result="hardAlpha"/>
<feOffset dy="4"/>
<feGaussianBlur stdDeviation="2"/>
<feComposite in2="hardAlpha" operator="out"/>
<feColorMatrix type="matrix" values="0 0 0 0 0 0 0 0 0 0 0 0 0 0 0 0 0 0 0.25 0"/>
<feBlend mode="normal" in2="BackgroundImageFix" result="effect1_dropShadow_20_246"/>
<feBlend mode="normal" in="SourceGraphic" in2="effect1_dropShadow_20_246" result="shape"/>
</filter>
</defs>
</svg>
