<svg width="72" height="72" viewBox="0 0 72 72" fill="none" xmlns="http://www.w3.org/2000/svg">
<path d="M14.4 7.2C12.4904 7.2 10.6591 7.95857 9.30883 9.30883C7.95857 10.6591 7.2 12.4904 7.2 14.4V57.6C7.2 59.5096 7.95857 61.3409 9.30883 62.6912C10.6591 64.0414 12.4904 64.8 14.4 64.8H57.6C59.5096 64.8 61.3409 64.0414 62.6912 62.6912C64.0414 61.3409 64.8 59.5096 64.8 57.6V14.4C64.8 12.4904 64.0414 10.6591 62.6912 9.30883C61.3409 7.95857 59.5096 7.2 57.6 7.2H14.4ZM14.4 0H57.6C61.4191 0 65.0818 1.51714 67.7823 4.21766C70.4829 6.91819 72 10.5809 72 14.4V57.6C72 61.4191 70.4829 65.0818 67.7823 67.7823C65.0818 70.4829 61.4191 72 57.6 72H14.4C10.5809 72 6.91819 70.4829 4.21766 67.7823C1.51714 65.0818 0 61.4191 0 57.6V14.4C0 10.5809 1.51714 6.91819 4.21766 4.21766C6.91819 1.51714 10.5809 0 14.4 0V0Z" fill="#A8F69C"/>
<mask id="path-2-outside-1_546_1524" maskUnits="userSpaceOnUse" x="16" y="18" width="38" height="38" fill="black">
<rect fill="white" x="16" y="18" width="38" height="38"/>
<path fill-rule="evenodd" clip-rule="evenodd" d="M47.9004 24.087C46.286 22.4697 44.3652 21.1873 42.2493 20.3141C40.1333 19.4409 37.8643 18.9943 35.5737 19.0001C25.9686 19.0001 18.1495 26.7802 18.1456 36.3435C18.1456 39.3999 18.9473 42.3829 20.4712 45.0143L18 54L27.2382 51.5869C29.7936 52.9714 32.6565 53.6973 35.566 53.6986H35.5737C45.1769 53.6986 52.996 45.9185 52.9999 36.3551C53.0065 34.0763 52.5592 31.8188 51.6839 29.7131C50.8086 27.6073 49.5227 25.6951 47.9004 24.087ZM35.5737 50.7716H35.5679C32.9735 50.7719 30.4269 50.0772 28.1952 48.7604L27.6672 48.4475L22.1852 49.8791L23.647 44.5603L23.3034 44.0155C21.8529 41.7172 21.085 39.0576 21.0885 36.3435C21.0923 28.3953 27.5896 21.929 35.5796 21.929C37.4824 21.9247 39.3672 22.2962 41.1249 23.0218C42.8826 23.7474 44.4782 24.8127 45.8194 26.1561C47.1678 27.4932 48.2366 29.0829 48.9639 30.8335C49.6913 32.5841 50.0628 34.4608 50.0571 36.3551C50.0532 44.3033 43.556 50.7716 35.5737 50.7716ZM43.5191 39.9737C43.0823 39.7554 40.9431 38.7083 40.5432 38.5634C40.1453 38.4185 39.856 38.347 39.5648 38.7798C39.2737 39.2125 38.4389 40.1882 38.1847 40.478C37.9304 40.7678 37.6761 40.8026 37.2412 40.5862C36.8064 40.3698 35.4029 39.9119 33.7393 38.4359C32.4445 37.2863 31.571 35.8683 31.3167 35.4336C31.0624 34.9989 31.2895 34.7651 31.5088 34.5487C31.7049 34.3555 31.9437 34.0425 32.1611 33.7894C32.3785 33.5364 32.4503 33.3567 32.5959 33.0669C32.7415 32.7771 32.6697 32.524 32.559 32.3076C32.4503 32.0893 31.5787 29.9564 31.2157 29.0889C30.8644 28.2485 30.5052 28.3606 30.2374 28.349C29.9599 28.3377 29.6823 28.3325 29.4046 28.3335C29.1838 28.3391 28.9665 28.39 28.7664 28.4831C28.5663 28.5762 28.3877 28.7094 28.2418 28.8745C27.8419 29.3092 26.718 30.3563 26.718 32.4892C26.718 34.6221 28.2787 36.6836 28.4961 36.9734C28.7135 37.2632 31.5671 41.6391 35.9348 43.517C36.9753 43.9633 37.7867 44.2299 38.4176 44.4309C39.46 44.7612 40.4093 44.7129 41.1605 44.6028C41.9972 44.4792 43.7365 43.5557 44.0995 42.5433C44.4625 41.5309 44.4625 40.6635 44.3538 40.4819C44.2451 40.3003 43.952 40.1901 43.5191 39.9737Z"/>
</mask>
<path fill-rule="evenodd" clip-rule="evenodd" d="M47.9004 24.087C46.286 22.4697 44.3652 21.1873 42.2493 20.3141C40.1333 19.4409 37.8643 18.9943 35.5737 19.0001C25.9686 19.0001 18.1495 26.7802 18.1456 36.3435C18.1456 39.3999 18.9473 42.3829 20.4712 45.0143L18 54L27.2382 51.5869C29.7936 52.9714 32.6565 53.6973 35.566 53.6986H35.5737C45.1769 53.6986 52.996 45.9185 52.9999 36.3551C53.0065 34.0763 52.5592 31.8188 51.6839 29.7131C50.8086 27.6073 49.5227 25.6951 47.9004 24.087ZM35.5737 50.7716H35.5679C32.9735 50.7719 30.4269 50.0772 28.1952 48.7604L27.6672 48.4475L22.1852 49.8791L23.647 44.5603L23.3034 44.0155C21.8529 41.7172 21.085 39.0576 21.0885 36.3435C21.0923 28.3953 27.5896 21.929 35.5796 21.929C37.4824 21.9247 39.3672 22.2962 41.1249 23.0218C42.8826 23.7474 44.4782 24.8127 45.8194 26.1561C47.1678 27.4932 48.2366 29.0829 48.9639 30.8335C49.6913 32.5841 50.0628 34.4608 50.0571 36.3551C50.0532 44.3033 43.556 50.7716 35.5737 50.7716ZM43.5191 39.9737C43.0823 39.7554 40.9431 38.7083 40.5432 38.5634C40.1453 38.4185 39.856 38.347 39.5648 38.7798C39.2737 39.2125 38.4389 40.1882 38.1847 40.478C37.9304 40.7678 37.6761 40.8026 37.2412 40.5862C36.8064 40.3698 35.4029 39.9119 33.7393 38.4359C32.4445 37.2863 31.571 35.8683 31.3167 35.4336C31.0624 34.9989 31.2895 34.7651 31.5088 34.5487C31.7049 34.3555 31.9437 34.0425 32.1611 33.7894C32.3785 33.5364 32.4503 33.3567 32.5959 33.0669C32.7415 32.7771 32.6697 32.524 32.559 32.3076C32.4503 32.0893 31.5787 29.9564 31.2157 29.0889C30.8644 28.2485 30.5052 28.3606 30.2374 28.349C29.9599 28.3377 29.6823 28.3325 29.4046 28.3335C29.1838 28.3391 28.9665 28.39 28.7664 28.4831C28.5663 28.5762 28.3877 28.7094 28.2418 28.8745C27.8419 29.3092 26.718 30.3563 26.718 32.4892C26.718 34.6221 28.2787 36.6836 28.4961 36.9734C28.7135 37.2632 31.5671 41.6391 35.9348 43.517C36.9753 43.9633 37.7867 44.2299 38.4176 44.4309C39.46 44.7612 40.4093 44.7129 41.1605 44.6028C41.9972 44.4792 43.7365 43.5557 44.0995 42.5433C44.4625 41.5309 44.4625 40.6635 44.3538 40.4819C44.2451 40.3003 43.952 40.1901 43.5191 39.9737Z" fill="#A8F69C"/>
<path fill-rule="evenodd" clip-rule="evenodd" d="M47.9004 24.087C46.286 22.4697 44.3652 21.1873 42.2493 20.3141C40.1333 19.4409 37.8643 18.9943 35.5737 19.0001C25.9686 19.0001 18.1495 26.7802 18.1456 36.3435C18.1456 39.3999 18.9473 42.3829 20.4712 45.0143L18 54L27.2382 51.5869C29.7936 52.9714 32.6565 53.6973 35.566 53.6986H35.5737C45.1769 53.6986 52.996 45.9185 52.9999 36.3551C53.0065 34.0763 52.5592 31.8188 51.6839 29.7131C50.8086 27.6073 49.5227 25.6951 47.9004 24.087ZM35.5737 50.7716H35.5679C32.9735 50.7719 30.4269 50.0772 28.1952 48.7604L27.6672 48.4475L22.1852 49.8791L23.647 44.5603L23.3034 44.0155C21.8529 41.7172 21.085 39.0576 21.0885 36.3435C21.0923 28.3953 27.5896 21.929 35.5796 21.929C37.4824 21.9247 39.3672 22.2962 41.1249 23.0218C42.8826 23.7474 44.4782 24.8127 45.8194 26.1561C47.1678 27.4932 48.2366 29.0829 48.9639 30.8335C49.6913 32.5841 50.0628 34.4608 50.0571 36.3551C50.0532 44.3033 43.556 50.7716 35.5737 50.7716ZM43.5191 39.9737C43.0823 39.7554 40.9431 38.7083 40.5432 38.5634C40.1453 38.4185 39.856 38.347 39.5648 38.7798C39.2737 39.2125 38.4389 40.1882 38.1847 40.478C37.9304 40.7678 37.6761 40.8026 37.2412 40.5862C36.8064 40.3698 35.4029 39.9119 33.7393 38.4359C32.4445 37.2863 31.571 35.8683 31.3167 35.4336C31.0624 34.9989 31.2895 34.7651 31.5088 34.5487C31.7049 34.3555 31.9437 34.0425 32.1611 33.7894C32.3785 33.5364 32.4503 33.3567 32.5959 33.0669C32.7415 32.7771 32.6697 32.524 32.559 32.3076C32.4503 32.0893 31.5787 29.9564 31.2157 29.0889C30.8644 28.2485 30.5052 28.3606 30.2374 28.349C29.9599 28.3377 29.6823 28.3325 29.4046 28.3335C29.1838 28.3391 28.9665 28.39 28.7664 28.4831C28.5663 28.5762 28.3877 28.7094 28.2418 28.8745C27.8419 29.3092 26.718 30.3563 26.718 32.4892C26.718 34.6221 28.2787 36.6836 28.4961 36.9734C28.7135 37.2632 31.5671 41.6391 35.9348 43.517C36.9753 43.9633 37.7867 44.2299 38.4176 44.4309C39.46 44.7612 40.4093 44.7129 41.1605 44.6028C41.9972 44.4792 43.7365 43.5557 44.0995 42.5433C44.4625 41.5309 44.4625 40.6635 44.3538 40.4819C44.2451 40.3003 43.952 40.1901 43.5191 39.9737Z" stroke="#A8F69C" stroke-width="2" mask="url(#path-2-outside-1_546_1524)"/>
</svg>
